<svg xmlns="http://www.w3.org/2000/svg" viewBox="0 0 100 100">
  <rect width="100" height="100" rx="22" fill="url(#g)"/>
  <g transform="rotate(45 50 50)" fill="#1a1204">
    <path d="M50 15C51.5 15 53 18 53 24L53 46L52 70L51.5 82L50 86L48.5 82L48 70L47 46L47 24C47 18 48.5 15 50 15Z"/>
    <path d="M52.5 40L82 60L82 65L53.5 52Z"/>
    <path d="M47.5 40L18 60L18 65L46.5 52Z"/>
    <path d="M51.5 72L64 80L64 84L51 78Z"/>
    <path d="M48.5 72L36 80L36 84L49 78Z"/>
    <path d="M63 50L68 53L66.5 57L61.5 54Z"/>
    <path d="M37 50L32 53L33.5 57L38.5 54Z"/>
  </g>
  <defs>
    <linearGradient id="g" x1="0" y1="0" x2="1" y2="1">
      <stop offset="0" stop-color="#f2ca79"/>
      <stop offset="1" stop-color="#d9a84e"/>
    </linearGradient>
  </defs>
</svg>
